<svg data-v-fde0c5aa="" xmlns="http://www.w3.org/2000/svg" viewBox="0 0 300 300" class="iconLeftSlogan"><!----><defs data-v-fde0c5aa=""><!----></defs><rect data-v-fde0c5aa="" fill="#D5392D" x="0" y="0" width="300px" height="300px" class="logo-background-square"></rect><defs data-v-fde0c5aa=""><!----></defs><g data-v-fde0c5aa="" id="e29763c6-2e58-4cc0-8c70-154dba971b3f" fill="#ffffff" transform="matrix(2.508875857430296,0,0,2.508875857430296,176.85585681238155,119.45230598592423)"><path d="M0.52 13.30L5.21 13.30L5.21 12.77C3.98 12.73 3.86 12.66 3.86 11.94L3.86 8.85L5.46 8.85C6.34 8.85 6.52 9.09 6.75 10.11L7.28 10.11L7.28 6.86L6.75 6.86C6.52 7.88 6.34 8.12 5.46 8.12L3.86 8.12L3.86 4.76C3.86 4.35 3.96 4.26 4.35 4.26L5.29 4.26C6.73 4.26 6.99 4.84 7.42 6.20L7.95 6.20L7.95 3.61L0.52 3.61L0.52 4.14C1.51 4.19 1.62 4.26 1.62 4.97L1.62 11.94C1.62 12.66 1.51 12.73 0.52 12.77ZM8.46 7.18L8.95 7.25C9.17 7.28 9.28 7.41 9.28 7.97L9.28 11.37C9.28 13.01 10.30 13.47 11.31 13.47C12.50 13.47 13.23 12.82 13.79 12.52L13.90 13.30L16.81 13.30L16.81 12.77C16.02 12.73 15.90 12.67 15.90 12.08L15.90 6.36L15.81 6.27L12.96 6.68L12.96 7.18L13.45 7.25C13.68 7.28 13.79 7.41 13.79 7.97L13.79 10.92C13.79 11.16 13.76 11.49 13.68 11.70C13.55 12.03 13.19 12.36 12.57 12.36C11.83 12.36 11.40 11.93 11.40 10.84L11.40 6.36L11.30 6.27L8.46 6.68ZM17.42 10.00C17.42 12.04 18.45 13.47 20.23 13.47C20.75 13.47 21.50 13.20 22.26 12.60L22.26 13.30L25.28 13.30L25.28 12.77C24.49 12.73 24.37 12.67 24.37 12.08L24.37 3.00L24.28 2.91L21.43 3.29L21.43 3.79L21.92 3.88C22.15 3.92 22.26 4.05 22.26 4.61L22.26 6.45C21.95 6.33 21.56 6.27 21.08 6.27C20.03 6.27 19.11 6.58 18.47 7.18C17.81 7.80 17.42 8.74 17.42 10.00ZM19.64 9.72C19.64 7.66 20.41 6.92 21.20 6.92C21.73 6.92 22.01 7.18 22.15 7.46C22.26 7.67 22.26 7.99 22.26 8.29L22.26 11.17C22.26 11.73 22.06 12.39 21.17 12.39C20.26 12.39 19.64 11.51 19.64 9.72ZM25.89 9.87C25.89 12.11 26.96 13.47 29.51 13.47C32.06 13.47 33.14 12.11 33.14 9.87C33.14 7.63 32.06 6.27 29.51 6.27C26.96 6.27 25.89 7.63 25.89 9.87ZM28.11 9.87C28.11 7.99 28.52 6.92 29.51 6.92C30.51 6.92 30.91 7.99 30.91 9.87C30.91 11.75 30.51 12.82 29.51 12.82C28.52 12.82 28.11 11.75 28.11 9.87Z"></path></g><defs data-v-fde0c5aa=""><!----></defs><g data-v-fde0c5aa="" id="dd6668b5-d09d-47bc-a651-d3fe2cd4f43e" stroke="none" fill="#FBBCB2" transform="matrix(1.3532594152644823,0,0,1.3532594152644823,34.199435517635884,81.95729228843125)"><path d="M96.562 62.695l-.311-2.181c-.3-1.686-.748-3.259-1.427-4.512-2.527-4.664-21.781-29.054-27.316-30.636a23.895 23.895 0 0 0-6.28-.879c-3.969 0-7.205 1.159-9.361 3.353-1.945 1.979-3 4.738-3.141 8.214-2.732 1.249-9.46 4.648-11.314 8.562-.935 1.974-4.817 3.736-7.937 5.154-2.51 1.14-4.678 2.125-6.004 3.35-.712.657-1.678 1.634-2.792 2.762-3.172 3.21-7.966 8.062-10.814 9.262-3.224 1.357-5.355 3.561-5.563 5.751-.111 1.173.374 2.242 1.299 2.858 1.666 1.11 7.711 1.94 12.003 1.94.905 0 1.779-.034 2.592-.106 2.44-.223 11.275-.403 19.694-.403 10.072 0 14.617.246 15.45.457 1.746.442 3.311.419 5.603.246 1.5-.11 3.247-.239 5.825-.193 2.647.052 5.091.155 7.103.242 1.79.075 3.245.138 4.214.138.651 0 1.066-.026 1.351-.079.105-.013.645-.056 3.195-.056 4.563 0 11.933.135 11.937.135.965.014 1.668-.648 1.782-1.544.044-.359.776-6.301.212-11.835zM46.117 46.308c3.599-.917 6.888-.204 7.346 1.596.458 1.797-2.085 4.002-5.683 4.918-3.599.917-6.887.204-7.346-1.596-.457-1.797 2.087-4 5.683-4.918zM28.83 55.225c3.478-.294 6.408.98 6.544 2.85.139 1.868-2.568 3.627-6.044 3.921-3.478.295-6.408-.98-6.544-2.851-.137-1.869 2.568-3.624 6.044-3.92zm39.898 16.327a1.68 1.68 0 0 0-.153.656c-.569-.016-1.146-.03-1.737-.043-.409-.007-.797-.01-1.169-.01-2.137 0-3.719.118-4.989.213-1.832.139-3.095.2-4.474-.147-1.843-.468-9.89-.565-16.315-.565-8.652 0-17.443.183-20.014.417-.599.055-1.252.072-1.912.079 6.599-2.576 14.378-5.079 16.664-4.546 1.353.322 2.363.663 3.255.963 2.088.705 3.741 1.262 6.725.329.837-.262 1.699-.604 2.57-.954 3.061-1.224 5.039-1.884 6.7-.719 3.797 2.659 6.9 2.202 9.901 1.768l.234-.032c2.237-.328 4.478-.024 4.998.672.234.312.131 1.013-.284 1.919zM63.599 61.02c-4.466.331-8.229-1.068-8.409-3.131-.181-2.062 3.292-4.004 7.756-4.336 4.464-.335 8.23 1.068 8.41 3.13.18 2.06-3.293 4.005-7.757 4.337zm13.949-2.595c-.728-2.467-1.829-4.981-3.479-6.277-4.092-3.216-9.187-7.505-11.213-9.899-.269-.317-5.652-6.588-10.517-7.036.231-2.092.908-3.74 2.046-4.897 1.866-1.898 4.752-2.297 6.844-2.297 2.447 0 4.527.52 5.309.742 3.187.91 17.306 17.467 23.131 25.74-1.961-.796-4.229-1.003-6.721-.068-2.527.946-4.226 2.306-5.4 3.992zm15.464 14.092c-2.44-.038-7.121-.106-10.382-.106-2.964 0-3.498.054-3.79.106a4.99 4.99 0 0 1-.608.035c.013-.229.026-.475.036-.7.409-8.403.806-12.198 5.92-14.114 4.326-1.626 7.479 2.22 8.7 4.07.524 3.574.367 7.941.124 10.709z"></path></g><defs data-v-fde0c5aa=""><!----></defs><g data-v-fde0c5aa="" id="9ec50697-299d-4149-af81-303cffba1f08" fill="#ffffff" transform="matrix(1.394674972119746,0,0,1.394674972119746,175.95688586084836,158.2818222326727)"><path d="M7.28 9.34L7.28 9.34L7.28 9.34Q7.73 9.34 7.99 9.59L7.99 9.59L7.99 9.59Q8.25 9.84 8.25 10.29L8.25 10.29L8.25 10.29Q8.25 10.40 8.23 10.52L8.23 10.52L8.23 10.52Q8.22 10.64 8.18 10.72L8.18 10.72L8.18 10.72Q7.99 10.70 7.77 10.68L7.77 10.68L7.77 10.68Q7.55 10.65 7.24 10.65L7.24 10.65L7.24 10.65Q6.61 10.65 5.98 10.77L5.98 10.77L5.98 10.77Q5.35 10.88 4.77 10.95L4.77 10.95L4.77 10.95Q4.14 12.43 3.74 13.73L3.74 13.73L3.74 13.73Q3.33 15.04 3.11 16.31L3.11 16.31L3.11 16.31Q2.63 16.20 2.27 15.90L2.27 15.90L2.27 15.90Q1.90 15.61 1.58 15.08L1.58 15.08L1.58 15.08Q1.68 14.85 1.82 14.54L1.82 14.54L1.82 14.54Q1.96 14.22 2.16 13.74L2.16 13.74L2.16 13.74Q2.35 13.26 2.63 12.56L2.63 12.56L2.63 12.56Q2.90 11.87 3.28 10.91L3.28 10.91L3.28 10.91Q2.69 10.71 2.51 10.22L2.51 10.22L2.51 10.22Q2.58 10.15 2.90 10.06L2.90 10.06L2.90 10.06Q3.22 9.97 3.68 9.86L3.68 9.86L3.68 9.86Q3.89 9.31 4.05 8.88L4.05 8.88L4.05 8.88Q4.20 8.46 4.33 8.07L4.33 8.07L4.33 8.07Q4.45 7.69 4.56 7.32L4.56 7.32L4.56 7.32Q4.66 6.94 4.75 6.52L4.75 6.52L4.68 6.52L4.68 6.52Q4.14 6.52 3.81 6.27L3.81 6.27L3.81 6.27Q3.49 6.02 3.49 5.61L3.49 5.61L3.49 5.61Q3.49 5.50 3.52 5.35L3.52 5.35L3.52 5.35Q3.56 5.19 3.61 5.08L3.61 5.08L3.61 5.08Q3.88 5.12 4.14 5.14L4.14 5.14L4.14 5.14Q4.40 5.15 4.82 5.15L4.82 5.15L4.82 5.15Q5.70 5.15 6.47 5.10L6.47 5.10L6.47 5.10Q7.24 5.05 7.86 5.00L7.86 5.00L7.86 5.00Q8.48 4.94 8.93 4.89L8.93 4.89L8.93 4.89Q9.38 4.84 9.62 4.84L9.62 4.84L9.62 4.84Q9.94 4.84 10.19 5.18L10.19 5.18L10.19 5.18Q10.44 5.52 10.58 6.13L10.58 6.13L10.58 6.13Q10.14 6.09 9.86 6.08L9.86 6.08L9.86 6.08Q9.59 6.06 9.38 6.06L9.38 6.06L9.38 6.06Q8.67 6.06 8.07 6.13L8.07 6.13L8.07 6.13Q7.48 6.19 6.94 6.27L6.94 6.27L6.94 6.27Q6.86 6.40 6.75 6.59L6.75 6.59L6.75 6.59Q6.65 6.79 6.48 7.15L6.48 7.15L6.48 7.15Q6.31 7.50 6.05 8.08L6.05 8.08L6.05 8.08Q5.80 8.65 5.40 9.53L5.40 9.53L5.40 9.53Q5.95 9.45 6.45 9.39L6.45 9.39L6.45 9.39Q6.94 9.34 7.28 9.34ZM15.50 14.90L15.50 14.90L15.50 14.90Q15.57 14.49 15.74 13.82L15.74 13.82L15.74 13.82Q15.92 13.16 16.16 12.41L16.16 12.41L16.16 12.41Q16.39 11.66 16.66 10.91L16.66 10.91L16.66 10.91Q16.93 10.15 17.18 9.55L17.18 9.55L17.18 9.55Q17.36 9.11 17.50 8.87L17.50 8.87L17.50 8.87Q17.64 8.62 17.81 8.46L17.81 8.46L17.81 8.46Q18.00 8.48 18.21 8.55L18.21 8.55L18.21 8.55Q18.42 8.62 18.62 8.72L18.62 8.72L18.62 8.72Q18.82 8.82 18.97 8.93L18.97 8.93L18.97 8.93Q19.12 9.03 19.21 9.13L19.21 9.13L19.21 9.13Q18.83 9.58 18.54 10.15L18.54 10.15L18.54 10.15Q18.26 10.72 17.96 11.62L17.96 11.62L17.96 11.62Q18.72 10.95 19.30 10.33L19.30 10.33L19.30 10.33Q19.88 9.72 20.38 8.96L20.38 8.96L20.38 8.96Q20.47 8.89 20.68 8.89L20.68 8.89L20.68 8.89Q20.87 8.89 21.06 8.95L21.06 8.95L21.06 8.95Q21.24 9.02 21.31 9.13L21.31 9.13L21.31 9.13Q21.06 9.80 21.06 10.46L21.06 10.46L21.06 10.46Q21.06 11.07 21.24 11.38L21.24 11.38L21.24 11.38Q21.22 11.47 21.05 11.70L21.05 11.70L21.05 11.70Q20.87 11.94 20.66 12.15L20.66 12.15L20.66 12.15Q20.29 11.96 19.99 11.61L19.99 11.61L19.99 11.61Q19.70 11.27 19.56 10.86L19.56 10.86L19.56 10.86Q18.90 11.33 18.44 11.77L18.44 11.77L18.44 11.77Q17.98 12.21 17.65 12.75L17.65 12.75L17.65 12.75Q17.32 13.29 17.09 13.99L17.09 13.99L17.09 13.99Q16.86 14.69 16.65 15.65L16.65 15.65L16.65 15.65Q16.52 15.64 16.34 15.56L16.34 15.56L16.34 15.56Q16.17 15.48 15.99 15.37L15.99 15.37L15.99 15.37Q15.82 15.26 15.68 15.13L15.68 15.13L15.68 15.13Q15.54 15.01 15.50 14.90ZM33.49 9.38L33.49 9.38L33.49 9.38Q33.43 10.25 33.18 10.87L33.18 10.87L33.18 10.87Q32.93 11.49 32.46 11.96L32.46 11.96L32.46 11.96Q31.99 12.43 31.32 12.81L31.32 12.81L31.32 12.81Q30.65 13.19 29.75 13.54L29.75 13.54L29.75 13.54Q29.75 13.62 29.74 13.71L29.74 13.71L29.74 13.71Q29.74 13.80 29.74 13.90L29.74 13.90L29.74 13.90Q29.74 14.08 29.76 14.28L29.76 14.28L29.76 14.28Q29.79 14.48 29.86 14.64L29.86 14.64L29.86 14.64Q29.93 14.81 30.06 14.92L30.06 14.92L30.06 14.92Q30.18 15.02 30.38 15.02L30.38 15.02L30.38 15.02Q30.76 15.02 31.12 14.85L31.12 14.85L31.12 14.85Q31.49 14.69 31.81 14.44L31.81 14.44L31.81 14.44Q32.14 14.20 32.43 13.91L32.43 13.91L32.43 13.91Q32.72 13.62 32.94 13.38L32.94 13.38L32.94 13.38Q33.08 13.51 33.18 13.62L33.18 13.62L33.18 13.62Q32.55 14.46 31.80 15.02L31.80 15.02L31.80 15.02Q31.05 15.57 30.38 15.72L30.38 15.72L30.38 15.72Q29.41 15.61 28.88 15.02L28.88 15.02L28.88 15.02Q28.34 14.42 28.34 13.58L28.34 13.58L28.34 13.58Q28.34 13.01 28.50 12.41L28.50 12.41L28.50 12.41Q28.66 11.82 28.95 11.26L28.95 11.26L28.95 11.26Q29.23 10.71 29.62 10.22L29.62 10.22L29.62 10.22Q30.00 9.73 30.44 9.37L30.44 9.37L30.44 9.37Q30.88 9.00 31.35 8.79L31.35 8.79L31.35 8.79Q31.82 8.58 32.28 8.58L32.28 8.58L32.28 8.58Q32.93 8.67 33.49 9.38ZM32.52 9.84L32.52 9.84L32.52 9.84Q32.14 9.90 31.74 10.15L31.74 10.15L31.74 10.15Q31.33 10.40 30.97 10.82L30.97 10.82L30.97 10.82Q30.62 11.24 30.32 11.80L30.32 11.80L30.32 11.80Q30.03 12.36 29.86 13.01L29.86 13.01L29.86 13.01Q30.98 12.45 31.72 11.63L31.72 11.63L31.72 11.63Q32.47 10.81 32.52 9.84ZM45.96 9.60L45.96 9.60L45.96 9.60Q45.95 9.87 45.87 10.16L45.87 10.16L45.87 10.16Q45.79 10.44 45.68 10.68L45.68 10.68L45.68 10.68Q45.57 10.91 45.44 11.06L45.44 11.06L45.44 11.06Q45.32 11.21 45.21 11.21L45.21 11.21L45.21 11.21Q45.05 11.20 45.02 11.00L45.02 11.00L45.02 11.00Q45.02 10.96 45.06 10.87L45.06 10.87L45.06 10.87Q45.09 10.78 45.14 10.67L45.14 10.67L45.14 10.67Q45.18 10.56 45.21 10.44L45.21 10.44L45.21 10.44Q45.25 10.33 45.25 10.25L45.25 10.25L45.25 10.25Q45.25 10.05 45.16 9.92L45.16 9.92L45.16 9.92Q45.07 9.79 44.91 9.79L44.91 9.79L44.91 9.79Q44.35 9.79 44.06 10.49L44.06 10.49L44.06 10.49Q43.76 11.19 43.76 12.54L43.76 12.54L43.76 12.54Q43.76 12.68 43.78 12.71L43.78 12.71L43.78 12.71Q44.07 12.70 44.30 12.69L44.30 12.69L44.30 12.69Q44.53 12.68 44.76 12.68L44.76 12.68L44.76 12.68Q44.77 12.71 44.77 12.80L44.77 12.80L44.77 12.80Q44.77 12.92 44.72 12.98L44.72 12.98L44.72 12.98Q44.39 13.05 44.20 13.10L44.20 13.10L44.20 13.10Q44.02 13.15 43.92 13.19L43.92 13.19L43.92 13.19Q43.82 13.23 43.80 13.28L43.80 13.28L43.80 13.28Q43.78 13.33 43.78 13.41L43.78 13.41L43.78 13.41Q43.78 13.52 43.79 13.64L43.79 13.64L43.79 13.64Q43.79 13.75 43.79 13.92L43.79 13.92L43.79 13.92Q43.79 15.09 43.16 15.81L43.16 15.81L43.16 15.81Q42.52 16.52 41.38 16.63L41.38 16.63L41.38 16.63Q41.19 16.62 40.98 16.52L40.98 16.52L40.98 16.52Q40.77 16.42 40.58 16.27L40.58 16.27L40.58 16.27Q40.39 16.11 40.25 15.93L40.25 15.93L40.25 15.93Q40.11 15.74 40.05 15.54L40.05 15.54L40.05 15.54Q40.05 15.01 40.28 14.53L40.28 14.53L40.28 14.53Q40.50 14.04 40.89 13.67L40.89 13.67L40.89 13.67Q41.27 13.30 41.80 13.07L41.80 13.07L41.80 13.07Q42.32 12.84 42.94 12.80L42.94 12.80L42.94 12.80Q42.94 12.45 42.87 12.11L42.87 12.11L42.87 12.11Q42.80 11.77 42.72 11.46L42.72 11.46L42.72 11.46Q42.64 11.14 42.57 10.84L42.57 10.84L42.57 10.84Q42.50 10.54 42.50 10.25L42.50 10.25L42.50 10.25Q42.50 9.87 42.66 9.50L42.66 9.50L42.66 9.50Q42.81 9.13 43.06 8.81L43.06 8.81L43.06 8.81Q43.32 8.50 43.65 8.27L43.65 8.27L43.65 8.27Q43.99 8.05 44.35 7.97L44.35 7.97L44.35 7.97Q44.51 8.01 44.77 8.21L44.77 8.21L44.77 8.21Q45.02 8.41 45.28 8.67L45.28 8.67L45.28 8.67Q45.53 8.92 45.72 9.18L45.72 9.18L45.72 9.18Q45.92 9.44 45.96 9.60ZM41.34 15.99L41.34 15.99L41.34 15.99Q41.68 15.85 41.98 15.58L41.98 15.58L41.98 15.58Q42.28 15.32 42.50 14.98L42.50 14.98L42.50 14.98Q42.73 14.64 42.86 14.27L42.86 14.27L42.86 14.27Q42.99 13.89 42.99 13.52L42.99 13.52L42.99 13.52Q42.71 13.57 42.38 13.78L42.38 13.78L42.38 13.78Q42.04 14 41.75 14.30L41.75 14.30L41.75 14.30Q41.45 14.60 41.26 14.92L41.26 14.92L41.26 14.92Q41.06 15.25 41.06 15.48L41.06 15.48L41.06 15.48Q41.06 15.79 41.34 15.99ZM52.96 14.94L52.96 14.94L52.96 14.94Q52.96 14.45 53.06 13.78L53.06 13.78L53.06 13.78Q53.16 13.12 53.35 12.36L53.35 12.36L53.35 12.36Q53.54 11.61 53.80 10.78L53.80 10.78L53.80 10.78Q54.05 9.95 54.38 9.13L54.38 9.13L54.38 9.13Q54.66 8.39 55.03 7.63L55.03 7.63L55.03 7.63Q55.40 6.87 55.83 6.15L55.83 6.15L55.83 6.15Q56.27 5.42 56.73 4.76L56.73 4.76L56.73 4.76Q57.20 4.10 57.68 3.56L57.68 3.56L57.68 3.56Q57.90 3.56 58.16 3.61L58.16 3.61L58.16 3.61Q58.42 3.67 58.67 3.76L58.67 3.76L58.67 3.76Q58.91 3.85 59.12 3.98L59.12 3.98L59.12 3.98Q59.32 4.10 59.44 4.23L59.44 4.23L59.44 4.23Q58.39 5.31 57.55 6.40L57.55 6.40L57.55 6.40Q56.71 7.50 56.22 8.47L56.22 8.47L56.22 8.47Q55.96 9.00 55.74 9.46L55.74 9.46L55.74 9.46Q55.52 9.93 55.34 10.38L55.34 10.38L55.34 10.38Q55.16 10.84 55.01 11.29L55.01 11.29L55.01 11.29Q54.87 11.75 54.74 12.25L54.74 12.25L54.74 12.25Q57.43 8.82 58.73 8.82L58.73 8.82L58.73 8.82Q59.09 8.82 59.51 9.06L59.51 9.06L59.51 9.06Q59.93 9.30 60.26 9.70L60.26 9.70L60.26 9.70Q59.82 10.18 59.36 10.85L59.36 10.85L59.36 10.85Q58.90 11.52 58.51 12.20L58.51 12.20L58.51 12.20Q58.13 12.88 57.88 13.46L57.88 13.46L57.88 13.46Q57.64 14.04 57.64 14.32L57.64 14.32L57.64 14.32Q57.64 14.46 57.68 14.51L57.68 14.51L57.68 14.51Q57.72 14.56 57.86 14.56L57.86 14.56L57.86 14.56Q58.07 14.56 58.20 14.50L58.20 14.50L58.20 14.50Q58.32 14.45 58.35 14.45L58.35 14.45L58.35 14.45Q58.42 14.56 58.44 14.60L58.44 14.60L58.44 14.60Q58.45 14.64 58.45 14.67L58.45 14.67L58.45 14.67Q58.45 14.73 58.28 14.83L58.28 14.83L58.28 14.83Q58.11 14.94 57.88 15.04L57.88 15.04L57.88 15.04Q57.65 15.15 57.43 15.23L57.43 15.23L57.43 15.23Q57.20 15.32 57.09 15.32L57.09 15.32L57.09 15.32Q56.95 15.32 56.81 15.24L56.81 15.24L56.81 15.24Q56.67 15.16 56.57 15.04L56.57 15.04L56.57 15.04Q56.46 14.91 56.40 14.76L56.40 14.76L56.40 14.76Q56.34 14.60 56.34 14.43L56.34 14.43L56.34 14.43Q56.34 14.22 56.45 13.81L56.45 13.81L56.45 13.81Q56.57 13.40 56.78 12.85L56.78 12.85L56.78 12.85Q56.99 12.29 57.29 11.63L57.29 11.63L57.29 11.63Q57.58 10.98 57.92 10.29L57.92 10.29L57.92 10.29Q57.92 10.23 57.86 10.23L57.86 10.23L57.86 10.23Q57.82 10.23 57.65 10.35L57.65 10.35L57.65 10.35Q57.47 10.46 57.32 10.57L57.32 10.57L57.32 10.57Q56.81 10.95 56.30 11.50L56.30 11.50L56.30 11.50Q55.79 12.05 55.31 12.71L55.31 12.71L55.31 12.71Q54.82 13.37 54.40 14.11L54.40 14.11L54.40 14.11Q53.97 14.84 53.66 15.58L53.66 15.58L53.66 15.58Q53.62 15.68 53.54 15.76L53.54 15.76L53.54 15.76Q53.45 15.85 53.40 15.85L53.40 15.85L53.40 15.85Q53.35 15.85 53.28 15.75L53.28 15.75L53.28 15.75Q53.20 15.65 53.14 15.51L53.14 15.51L53.14 15.51Q53.07 15.36 53.02 15.20L53.02 15.20L53.02 15.20Q52.96 15.05 52.96 14.94Z"></path></g></svg>